<svg width="113" height="130" viewBox="0 0 113 130" fill="none" xmlns="http://www.w3.org/2000/svg">
<path d="M112.138 32.3715L56.0691 0L0 32.3715V97.1145L56.0691 129.486L112.138 97.1145V32.3715Z" fill="#1644F5"/>
<path d="M83.7579 37.0543C78.203 31.4994 71.1257 27.7164 63.4208 26.1839C55.716 24.6513 47.7297 25.4378 40.4718 28.4441C33.214 31.4504 27.0107 36.5414 22.6462 43.0732C18.2818 49.6051 15.9523 57.2845 15.9523 65.1403C15.9523 72.9961 18.2818 80.6755 22.6462 87.2073C27.0107 93.7392 33.214 98.8302 40.4719 101.836C47.7297 104.843 55.716 105.629 63.4208 104.097C71.1257 102.564 78.203 98.7812 83.7579 93.2263L67.6618 77.1302C65.2904 79.5016 62.2691 81.1165 58.9799 81.7707C55.6907 82.425 52.2814 82.0892 49.183 80.8058C46.0847 79.5225 43.4364 77.3491 41.5733 74.5607C39.7101 71.7722 38.7156 68.4939 38.7156 65.1403C38.7156 61.7866 39.7101 58.5083 41.5733 55.7199C43.4364 52.9314 46.0847 50.7581 49.183 49.4747C52.2814 48.1913 55.6907 47.8556 58.9799 48.5098C62.2691 49.1641 65.2904 50.779 67.6618 53.1504L83.7579 37.0543Z" fill="white"/>
<path d="M62.3157 65.5106H58.8008V60.9915H62.3157V56.9745H67.3369V60.9915H70.8517V65.5106H67.3369V69.5275H62.3157V65.5106ZM80.5489 65.5106H77.0341V60.9915H80.5489V56.9745H85.5701V60.9915H89.0849V65.5106H85.5701V69.5275H80.5489V65.5106Z" fill="white"/>
</svg>
