<svg width="119" height="117" viewBox="0 0 119 117" fill="none" xmlns="http://www.w3.org/2000/svg">
<g clip-path="url(#clip0_1904_355)">
<path d="M116.121 48.695C113.461 46.8949 107.366 46.2199 102.601 47.1199C102.047 42.6197 99.4982 38.6824 95.0654 35.1947L92.5167 33.3946L90.7432 35.9822C88.5273 39.3574 87.4191 44.0827 87.7512 48.583C87.862 50.1576 88.4161 52.9703 90.0784 55.4454C88.5273 56.3455 85.3134 57.4705 81.1024 57.4705H0.980635L0.759176 58.3706C-0.0168507 62.8704 -0.016851 76.9333 9.07032 87.7335C15.9411 95.946 26.1365 100.109 39.5453 100.109C68.5794 100.109 90.0784 86.4954 100.163 61.8578C104.153 61.9703 112.686 61.8578 117.008 53.4198C117.118 53.1948 117.34 52.7448 118.115 51.0577L118.559 50.1576L116.121 48.695ZM65.0333 16.9695H52.8439V28.2197H65.0333V16.9695ZM65.0333 30.4698H52.8439V41.72H65.0333V30.4694V30.4698ZM50.627 30.4698H38.4375V41.72H50.627V30.4694V30.4698ZM36.2207 30.4698H24.0308V41.72H36.2207V30.4694V30.4698ZM21.8143 43.9702H9.62443V55.2204H21.8139V43.9697L21.8143 43.9702ZM36.2207 43.9702H24.0308V55.2204H36.2207V43.9697V43.9702ZM50.627 43.9702H38.4375V55.2204H50.627V43.9697V43.9702ZM65.0338 43.9702H52.8434V55.2204H65.0338V43.9697V43.9702ZM79.4401 43.9702H67.2497V55.2204H79.4401V43.9697V43.9702Z" fill="#2396ED"/>
</g>
<defs>
<clipPath id="clip0_1904_355">
<rect width="118.111" height="115.207" fill="white" transform="translate(0.447754 0.935791)"/>
</clipPath>
</defs>
</svg>
