<svg width="119" height="117" viewBox="0 0 119 117" fill="none" xmlns="http://www.w3.org/2000/svg">
<path d="M106.723 57.5666C106.723 51.6445 101.8 46.8433 95.7289 46.8433C95.3381 46.8433 94.9531 46.8637 94.5731 46.9029L109.673 3.46265H45.5039L60.5828 46.8649C60.3603 46.8512 60.1374 46.8442 59.9144 46.8437C53.843 46.8437 48.9208 51.6441 48.9208 57.567C48.9208 62.3539 52.1373 66.4069 56.5762 67.7858C54.2318 71.7469 51.2815 75.3149 47.9319 78.3977C43.3771 82.5886 38.1644 85.7668 32.5266 87.7249C25.8141 84.3614 22.6445 76.8812 25.5044 70.3227C25.8275 69.5818 26.1572 68.8312 26.4723 68.0838C31.3352 66.9767 34.9593 62.7246 34.9593 57.6437C34.9593 51.7212 30.037 46.9204 23.9652 46.9204C17.8934 46.9204 12.9716 51.7212 12.9716 57.6437C12.9716 61.2755 14.8238 64.4835 17.6557 66.4232C14.9347 72.4661 10.9348 78.7907 9.68853 86.1207C8.19495 94.9051 9.68351 104.23 17.4728 109.496C35.6133 121.76 55.3048 101.893 76.0668 96.8991C83.5911 95.0896 91.8508 95.3811 98.4801 91.6363C103.458 88.8238 106.741 84.1626 107.672 78.9299C108.592 73.7605 107.251 68.6136 104.166 64.4402C105.821 62.5139 106.726 60.0799 106.723 57.5666Z" fill="#99425B"/>
<path d="M105.026 78.4816C104.218 83.0248 101.341 86.9929 97.1342 89.3698C93.2126 91.5851 88.5134 92.2464 83.5376 92.946C80.8722 93.3207 78.1161 93.7089 75.4236 94.3563C68.3043 96.0687 61.4084 99.4098 54.7403 102.641C41.3947 109.106 29.8696 114.69 19.0024 107.343C11.0419 101.962 11.4094 92.0051 12.3367 86.5492C13.1963 81.4941 15.5201 76.8386 17.767 72.3366C18.1498 71.5715 18.5295 70.8049 18.9061 70.0368C20.0387 70.4785 21.2272 70.7693 22.4394 70.9014C20.152 78.2648 23.7493 86.2712 31.2992 90.0543L32.3328 90.5723L33.4268 90.1923C39.3956 88.1187 44.8958 84.7919 49.7741 80.3021C52.9274 77.4003 55.6388 74.1898 57.8672 70.7593C58.5447 70.859 59.2289 70.9091 59.914 70.9091C66.8437 70.9091 72.582 65.8561 73.4701 59.3298C76.3066 59.2286 79.3192 59.2278 82.1721 59.329C83.0593 65.8561 88.7984 70.9095 95.7281 70.9095C98.6257 70.9095 101.313 70.0238 103.527 68.5191C105.065 71.5884 105.638 75.0417 105.026 78.4816ZM23.9652 49.5393C28.5468 49.5393 32.2738 53.1751 32.2738 57.644C32.2738 59.249 31.7909 60.7459 30.9619 62.0064C29.5809 64.1074 27.2332 65.5475 24.536 65.7271C24.3473 65.7393 24.1569 65.7483 23.9652 65.7483C22.9441 65.7483 21.9661 65.5667 21.0617 65.2368C19.2404 64.5688 17.7152 63.3017 16.7492 61.6541C16.032 60.4335 15.6551 59.0509 15.6562 57.644C15.6562 53.1751 19.3836 49.5393 23.9652 49.5393ZM51.6058 57.5668C51.6058 53.5065 54.6829 50.1352 58.6812 49.5523C59.0837 49.4931 59.4955 49.4625 59.9144 49.4625C62.5781 49.4625 64.9497 50.6932 66.4705 52.6003C66.8514 53.0758 67.1767 53.5913 67.4405 54.1372C67.957 55.2103 68.2242 56.3814 68.2231 57.5668C68.2231 58.2146 68.1427 58.8445 67.995 59.4486C67.1852 62.755 64.2947 65.2826 60.7527 65.6303C60.4773 65.6573 60.1978 65.6712 59.9144 65.6712C58.3163 65.6724 56.7521 65.2214 55.4115 64.3727C53.1241 62.9273 51.6058 60.4173 51.6058 57.5668ZM86.2837 47.9293C84.4756 49.6127 83.1744 51.7467 82.5211 54.1C79.3894 53.9874 76.2544 53.9874 73.1227 54.1C72.4197 51.5562 70.9625 49.3119 69.0019 47.6073L77.5997 30.65L86.2837 47.9297V47.9293ZM49.2485 6.08229H105.927L92.5401 44.5936C91.9641 44.7281 91.3978 44.8992 90.8448 45.1058L77.6206 18.7923L64.3588 44.9487C63.7806 44.7551 63.1898 44.5998 62.5902 44.4837L49.2485 6.08229ZM104.037 57.5672C104.037 58.3796 103.912 59.1641 103.684 59.905C103.14 61.6492 102.013 63.1651 100.481 64.2094C99.0887 65.1624 97.4289 65.673 95.7281 65.6716C91.8918 65.6716 88.6557 63.1216 87.704 59.6682C87.5151 58.9831 87.4194 58.2767 87.4195 57.5672C87.4195 56.4594 87.6488 55.403 88.0631 54.4405C88.2769 53.948 88.5401 53.4773 88.849 53.0355C90.3443 50.8826 92.8673 49.4629 95.7281 49.4629C95.9905 49.4629 96.2491 49.476 96.5056 49.4997C100.724 49.883 104.037 53.3539 104.037 57.5672H104.037ZM109.407 57.5672C109.407 51.0533 104.595 45.6181 98.2579 44.4572L113.418 0.843506H41.7584L56.9419 44.5454C50.8245 45.8732 46.2358 51.2055 46.2358 57.5668C46.2358 62.3435 48.8237 66.539 52.7022 68.8967C50.8366 71.608 48.6245 74.1592 46.0893 76.4924C42.0685 80.1919 37.5894 82.9979 32.7605 84.8441C27.8965 81.8639 25.8404 76.2434 27.9756 71.3475L28.143 70.9638L28.4568 70.2438C33.7992 68.4261 37.6439 63.4665 37.6439 57.644C37.6439 50.2867 31.5076 44.3013 23.9652 44.3013C16.4224 44.3013 10.2861 50.2867 10.2861 57.644C10.2861 61.3573 11.8513 64.7201 14.3697 67.1415C13.9 68.1122 13.4232 69.0797 12.9393 70.0438C10.6364 74.6568 8.02673 79.8854 7.03952 85.692C5.07933 97.2235 8.24141 106.442 15.9437 111.648C20.6173 114.808 25.3638 116.05 30.14 116.05C39.1332 116.05 48.2311 111.643 57.1294 107.332C63.5377 104.227 70.1644 101.017 76.71 99.442C79.1456 98.8563 81.6515 98.5036 84.3047 98.1305C89.5663 97.39 95.0066 96.6247 99.8259 93.9024C105.412 90.7462 109.236 85.4519 110.317 79.378C111.246 74.1633 110.129 68.9404 107.404 64.5107C108.717 62.4211 109.41 60.0175 109.408 57.5668L109.407 57.5672Z" fill="white"/>
</svg>
