<svg width="119" height="117" viewBox="0 0 119 117" fill="none" xmlns="http://www.w3.org/2000/svg">
<path d="M83.8572 46.6904C77.9316 19.9189 65.5653 12.79 62.4273 7.75076C60.7218 5.00949 58.9828 0.843506 58.9828 0.843506C58.8127 3.21804 58.5113 4.72191 56.5327 6.52655C52.5703 10.1438 35.7315 24.1957 34.3171 54.6161C32.998 82.9786 54.67 100.471 57.5503 102.278C59.7505 103.386 62.4454 102.299 63.7335 101.284C74.1779 93.9384 88.4662 74.3537 83.8443 46.6904" fill="#10AA50"/>
<path d="M59.8786 87.1709C59.335 94.1942 58.9434 98.2811 57.5599 102.286C57.5599 102.286 58.472 108.969 59.1057 116.05H61.3652C61.9045 111.063 62.7278 106.112 63.8307 101.223C60.904 99.7533 59.9894 93.3315 59.8786 87.1709Z" fill="#B8C4C2"/>
<path d="M63.8291 101.228C60.8715 99.8297 60.0162 93.2786 59.8848 87.1708C60.6135 77.1008 60.8242 66.9986 60.516 56.906C60.3614 51.6108 60.5933 7.85347 59.2433 1.44751C59.7895 2.70074 61.1085 5.64516 62.4276 7.74794C65.5785 12.7899 77.9345 19.9187 83.8549 46.6929C88.4691 74.285 74.2658 93.8353 63.8291 101.228Z" fill="#12924F"/>
</svg>
