<svg width="119" height="103" viewBox="0 0 119 103" fill="none" xmlns="http://www.w3.org/2000/svg">
<g clip-path="url(#clip0_1904_366)">
<path d="M59.9472 61.7228C65.7714 61.7228 70.4929 57.1174 70.4929 51.4365C70.4929 45.7555 65.7714 41.1501 59.9472 41.1501C54.1231 41.1501 49.4016 45.7555 49.4016 51.4365C49.4016 57.1174 54.1231 61.7228 59.9472 61.7228Z" fill="#F5DE19"/>
<path d="M59.9475 75.0207C47.2722 75.3198 34.6287 73.6532 22.4894 70.0833C16.8818 68.3494 11.6516 65.618 7.06327 62.0271C5.3124 60.8003 3.85433 59.2187 2.78909 57.3906C1.72386 55.5625 1.07668 53.5313 0.891968 51.4363C0.891968 44.6349 8.55232 37.9694 21.3842 33.608C33.8481 29.7434 46.8706 27.8705 59.9475 28.0616C72.8499 27.8858 85.698 29.7249 98.0046 33.5093C103.405 35.1886 108.458 37.788 112.929 41.187C114.65 42.3565 116.086 43.8808 117.136 45.6521C118.185 47.4233 118.823 49.398 119.003 51.4363C119.003 58.505 110.44 65.6684 96.6463 70.1203C84.7421 73.5739 72.3653 75.2266 59.9475 75.0207ZM59.9475 32.9826C47.4367 32.8195 34.9789 34.6 23.042 38.2574C11.2309 42.2773 5.937 47.7743 5.937 51.4239C5.937 55.2422 11.6274 61.2453 24.1219 65.4133C35.7351 68.8113 47.8268 70.3931 59.9475 70.0998C71.8278 70.307 83.6707 68.739 95.0645 65.4503C108.036 61.2576 113.941 55.2463 113.941 51.4363C113.728 50.1288 113.24 48.8785 112.507 47.7645C111.773 46.6505 110.811 45.697 109.681 44.9641C105.681 41.9487 101.167 39.645 96.3468 38.1587C84.5738 34.5533 72.2858 32.806 59.9475 32.9826Z" fill="#F5DE19"/>
<path d="M35.9873 102.74C34.0195 102.784 32.0749 102.318 30.3517 101.39C24.3112 97.9919 22.2189 88.1911 24.7541 75.1686C27.5493 62.7061 32.3925 50.7665 39.0961 39.8124C45.3844 28.823 53.4348 18.8856 62.9419 10.3771C67.1313 6.65223 71.9642 3.68088 77.2165 1.60081C79.1162 0.73239 81.1886 0.282227 83.2866 0.282227C85.3846 0.282227 87.4569 0.73239 89.3566 1.60081C95.6376 5.13107 97.7172 15.9441 94.7855 29.8224C91.904 41.6087 87.1866 52.8943 80.7978 63.2858C74.7308 74.1455 66.934 83.9964 57.6986 92.4702C53.3572 96.341 48.3187 99.3947 42.8377 101.477C40.6435 102.271 38.3274 102.698 35.9873 102.74ZM43.4663 42.2565C37.0718 52.7457 32.4299 64.161 29.7147 76.0738C27.3821 88.0676 29.6219 95.2804 32.8784 97.1155C36.253 99.0205 44.4449 97.2142 54.3915 88.7383C63.2078 80.6201 70.6497 71.1907 76.4403 60.8006C82.5608 50.8662 87.0859 40.0763 89.8586 28.8061C92.6173 15.7424 90.234 7.7438 86.851 5.84289C85.583 5.369 84.2281 5.15687 82.8718 5.2199C81.5155 5.28293 80.1873 5.61975 78.9713 6.20908C74.2961 8.09084 69.9979 10.7623 66.2744 14.1007C57.1911 22.2507 49.5013 31.7642 43.4958 42.2811L43.4663 42.2565Z" fill="#F5DE19"/>
<path d="M83.8895 102.793C78.1738 102.793 70.9142 99.4196 63.3551 93.0791C53.6813 84.4932 45.4949 74.4378 39.1128 63.3022C32.4932 52.499 27.6883 40.7322 24.8804 28.4481C23.6626 23.0436 23.4369 17.4713 24.2139 11.99C24.3935 9.95658 25.0283 7.9864 26.0734 6.21835C27.1186 4.4503 28.5487 2.92742 30.2629 1.75712C36.5354 -1.78549 47.1781 1.85587 58.0401 11.2617C67.0696 19.582 74.7376 29.2039 80.7765 39.7918C87.3919 50.3429 92.2472 61.852 95.1607 73.8889C96.4309 79.4917 96.6268 85.2754 95.7386 90.9478C95.5273 93.0396 94.8547 95.0622 93.7669 96.8767C92.6791 98.6913 91.2019 100.255 89.4365 101.46C87.7415 102.377 85.827 102.837 83.8895 102.793ZM43.4787 60.8253C49.6012 71.4672 57.4212 81.0908 66.6453 89.3349C76.1322 97.2965 83.6575 99.0081 86.8929 97.1525C90.2675 95.2392 92.7563 87.4298 90.1916 74.7941C87.3817 63.302 82.7248 52.3161 76.3937 42.2441C70.6308 32.1105 63.3118 22.897 54.6908 14.9236C44.4657 6.06914 36.1726 4.09006 32.7938 5.9992C31.7407 6.83396 30.8765 7.87264 30.2557 9.04965C29.6349 10.2267 29.2711 11.5164 29.1872 12.8375C28.5165 17.726 28.735 22.6914 29.8326 27.5058C32.5336 39.2534 37.1417 50.5045 43.4829 60.8335L43.4787 60.8253Z" fill="#F5DE19"/>
</g>
<defs>
<clipPath id="clip0_1904_366">
<rect width="118.111" height="101.766" fill="white" transform="translate(0.888916 0.65625)"/>
</clipPath>
</defs>
</svg>
