<svg width="119" height="117" viewBox="0 0 119 117" fill="none" xmlns="http://www.w3.org/2000/svg">
<path fill-rule="evenodd" clip-rule="evenodd" d="M69.7789 0.935547C68.9681 0.944539 68.1644 1.08354 67.3998 1.347C74.1954 5.70017 66.2187 12.0201 69.9308 17.3937C69.6711 15.5949 69.9637 13.7615 70.7715 12.1248C71.5793 10.4881 72.8662 9.12153 74.4696 8.19769C75.6718 7.22255 76.4395 6.87281 76.1822 5.25992C75.7773 2.61839 72.1665 0.935547 69.7789 0.935547ZM79.4809 2.63896C78.5444 7.25958 77.3718 7.42827 73.9002 10.4031C72.5448 11.4433 71.5879 12.8984 71.1839 14.5338C70.7798 16.1692 70.9521 17.8897 71.6729 19.418C57.3309 13.9868 38.9477 10.7034 25.4704 20.101C20.6236 23.4791 17.6624 28.3301 11.6851 30.3092C7.8212 31.597 4.02478 31.2185 1.61193 34.9545C0.726408 36.0333 0.263817 37.3845 0.307106 38.7658C0.350395 40.1471 0.896731 41.4683 1.84816 42.4923C2.56526 43.2123 3.95728 43.6732 4.53097 44.4055C4.86421 44.817 4.85577 45.2285 5.17214 45.7757C5.72992 47.0517 6.53811 48.209 7.55124 49.1825C8.1671 49.6804 10.3015 50.1659 10.6643 50.6967C11.1157 51.3591 9.93455 53.9883 10.9258 54.3997C11.5965 54.7001 13.5496 51.3385 13.7394 51.0423C13.3513 53.6879 12.8409 58.3826 15.8907 54.4738C17.3376 52.6181 17.4262 52.0051 19.8601 51.5936C24.6637 50.7911 29.5858 50.9685 34.3156 52.1147C39.0454 53.2608 43.4804 55.3508 47.3405 58.2527C51.2007 61.1547 54.4023 64.8055 56.7432 68.975C59.0842 73.1444 60.5138 77.7419 60.9417 82.4773C60.4861 80.42 57.7316 77.1284 55.1669 77.9102C54.0744 78.2393 53.6694 80.0785 52.9523 81.1442C52.0469 82.4963 50.9296 83.7015 49.641 84.7156C49.861 82.7209 49.7585 80.7049 49.3373 78.7413C48.5695 81.819 47.0299 86.9251 43.1533 86.0981C41.8619 85.9058 40.6519 85.3632 39.6614 84.5324C38.6709 83.7016 37.9398 82.6159 37.5515 81.3993C37.0495 78.2722 40.4367 74.6062 34.991 74.347C24.0657 73.8244 26.5924 89.4967 33.0421 93.5824C31.5598 93.7424 30.1139 94.1356 28.7606 94.7468C32.8544 97.0672 37.4672 98.3774 42.1982 98.5634C46.9292 98.7495 51.6352 97.8058 55.9072 95.8143C60.1792 93.8229 63.888 90.844 66.7113 87.1365C69.5346 83.4289 71.387 79.105 72.1074 74.5404C73.6098 81.2178 72.6446 88.1983 69.3824 94.249C68.017 96.7784 66.2678 99.0921 64.194 101.112C62.9285 102.346 60.4228 103.704 59.6003 104.984C64.7197 104.324 69.7225 102.983 74.4696 101.001C69.556 107.532 63.0252 112.741 55.4875 116.142C63.5813 115.583 71.4052 113.068 78.2538 108.824C85.1024 104.58 90.7603 98.7392 94.7172 91.8296C93.4562 98.7403 90.6555 105.297 86.5127 111.036C92.0848 107.398 96.8253 102.675 100.437 97.1638C104.048 91.653 106.452 85.4733 107.499 79.0128C108.535 83.7423 108.832 88.5975 108.38 93.4137C112.959 87.2107 116.052 80.0847 117.433 72.5607C118.813 65.0368 118.446 57.3065 116.357 49.9396C114.758 44.2132 112.361 38.728 109.232 33.6378C108.021 31.6543 106.696 29.7393 105.263 27.9022C104.702 27.1904 101.703 24.5859 101.703 23.7876C101.677 23.8672 101.656 23.8672 101.639 23.7876C101.639 37.2257 86.8755 45.6399 74.5118 42.1508C79.2979 41.7844 83.8126 39.8363 87.31 36.6284C90.8074 33.4205 93.0781 29.1448 93.747 24.5077C94.3113 19.8186 93.2009 15.0831 90.603 11.0995C88.005 7.11593 84.0784 4.12784 79.4851 2.63896H79.4809Z" fill="url(#paint0_linear_1904_351)"/>
<defs>
<linearGradient id="paint0_linear_1904_351" x1="59.2713" y1="116.142" x2="59.2713" y2="0.935547" gradientUnits="userSpaceOnUse">
<stop stop-color="#FFB199"/>
<stop offset="1" stop-color="#FF0844"/>
</linearGradient>
</defs>
</svg>
