<svg width="112" height="112" viewBox="0 0 112 112" fill="none" xmlns="http://www.w3.org/2000/svg">
<g clip-path="url(#clip0_1910_146)">
<rect width="112" height="112" rx="56" fill="#5E7FFF"/>
<path d="M52.7968 59.7232C46.5415 52.2379 44.2828 37.3884 55.1085 36C57.1908 36 61.7123 37.133 63.1401 41.6652C69.7354 37.3648 77.9229 38.7207 81.8452 46.0322C83.6282 49.3558 84 53.9399 84 59.7232C83.3679 66.3326 81.3228 79.7876 78.1994 80.7318C76.6749 82.2661 72.7557 85.1223 69.2754 84.2725V81.5579L70.7255 80.7318C72.3988 80.7318 73.6481 72.0451 69.2754 67.0408C68.3472 65.9785 61.4669 58.779 59.682 80.7318V91H47.5231V74.5944H41.0532V91H29.0057C29.622 88.899 29.3388 81.0701 28.1613 74.5944L25.3246 65.9785C21.755 61.1395 21.1303 46.2682 32.0176 40.603C33.6165 39.8948 38.4875 38.691 45.1805 39.5408C43.4701 43.5536 42.5033 54.1524 52.3197 64.4442C54.9969 66.5687 60.3513 69.4485 60.3513 63.9721C58.5665 66.427 54.5713 62.1624 52.7968 59.7232Z" fill="white"/>
<path d="M41.6072 21.0439H45.5772C46.4535 21.0439 47.1853 20.8467 47.7725 20.4523C48.3684 20.058 48.8154 19.5278 49.1133 18.8617C49.4201 18.1869 49.5734 17.4332 49.5734 16.6007C49.5734 15.6805 49.3675 14.9443 48.9556 14.3922C48.5437 13.8313 47.8119 13.5509 46.7603 13.5509H42.8297L44.1443 12.4467L41.0814 29.72H38.5048L41.7387 11.3162H46.8128C48.0222 11.3162 49.0257 11.4914 49.8232 11.842C50.6207 12.1838 51.2166 12.7183 51.611 13.4457C52.0054 14.1731 52.2025 15.1108 52.2025 16.2589C52.2025 17.5472 52.0141 18.6382 51.6373 19.5321C51.2604 20.426 50.7565 21.1491 50.1255 21.7012C49.4945 22.2533 48.7847 22.6564 47.996 22.9106C47.216 23.1559 46.4185 23.2786 45.6035 23.2786H41.2128L41.6072 21.0439ZM52.1785 29.72L55.6489 10.0016H58.0677L54.571 29.72H52.1785ZM59.987 29.72L61.0912 23.2786C61.1876 22.7353 61.2577 22.2752 61.3015 21.8983C61.3541 21.5215 61.3804 21.1841 61.3804 20.8861C61.3804 20.2026 61.1964 19.6636 60.8283 19.2692C60.469 18.8749 59.9607 18.6777 59.3034 18.6777C58.6198 18.6777 58.0195 18.853 57.5025 19.2035C56.9942 19.5453 56.5209 19.9879 56.0827 20.5312L56.4245 18.4148C57.0029 17.74 57.5989 17.2667 58.2123 16.995C58.8258 16.7146 59.5137 16.5744 60.2762 16.5744C61.0824 16.5744 61.7441 16.7584 62.2612 17.1265C62.787 17.4858 63.1726 17.9678 63.418 18.5725C63.6721 19.1772 63.7992 19.8433 63.7992 20.5706C63.7992 20.8423 63.7773 21.2016 63.7335 21.6486C63.6897 22.0955 63.6152 22.6214 63.51 23.2261L62.3795 29.72H59.987ZM64.3476 36.0824L67.7392 16.8373H69.6847L69.5533 19.7951L69.0274 19.3744C69.7285 18.4893 70.4121 17.8013 71.0782 17.3105C71.7442 16.8198 72.5505 16.5744 73.4969 16.5744C74.4785 16.5744 75.2935 16.8198 75.942 17.3105C76.5905 17.8013 77.0769 18.4586 77.4012 19.2824C77.7254 20.1062 77.8876 21.0176 77.8876 22.0167C77.8876 23.0333 77.7298 24.0192 77.4143 24.9744C77.0988 25.9209 76.6519 26.771 76.0735 27.5247C75.5038 28.2783 74.8247 28.8787 74.0359 29.3256C73.2472 29.7638 72.3752 29.9829 71.4199 29.9829C70.5786 29.9829 69.8425 29.7726 69.2115 29.3519C68.5805 28.9312 68.1029 28.2301 67.7786 27.2486L68.3307 26.9857L66.7401 36.0824H64.3476ZM71.2885 27.8796C72.0948 27.8796 72.809 27.6123 73.4312 27.0777C74.0534 26.5344 74.5398 25.8289 74.8904 24.9613C75.2409 24.0937 75.4162 23.1647 75.4162 22.1744C75.4162 21.1491 75.2103 20.3121 74.7984 19.6636C74.3865 19.0063 73.7511 18.6777 72.8923 18.6777C72.1999 18.6777 71.5339 18.9012 70.8941 19.3481C70.2631 19.7951 69.7461 20.4392 69.3429 21.2805C68.9398 22.1218 68.7382 23.1297 68.7382 24.304C68.7382 25.5923 68.9836 26.5124 69.4744 27.0646C69.9652 27.6079 70.5699 27.8796 71.2885 27.8796Z" fill="white"/>
</g>
<defs>
<clipPath id="clip0_1910_146">
<rect width="112" height="112" rx="56" fill="white"/>
</clipPath>
</defs>
</svg>
