<svg width="119" height="117" viewBox="0 0 119 117" fill="none" xmlns="http://www.w3.org/2000/svg">
<path d="M116.699 69.8549C116.01 67.8207 114.206 66.4039 111.874 66.0639C110.774 65.9038 109.514 65.9721 108.023 66.2718C105.425 66.7946 103.498 66.9937 102.091 67.0322C107.401 58.2878 111.718 48.3159 114.204 38.9291C118.223 23.7509 116.076 16.8363 113.566 13.7086C106.924 5.43016 97.2328 0.982879 85.5419 0.8468C79.3052 0.772417 73.8303 1.9735 70.9741 2.83722C68.3149 2.37955 65.4557 2.12402 62.4556 2.07676C56.8317 1.98925 51.8627 3.18508 47.6169 5.64281C45.2663 4.86747 41.4938 3.77446 37.1371 3.077C26.8906 1.43618 18.6322 2.71471 12.5916 6.87714C5.27699 11.9169 1.88616 20.6732 2.51327 32.9027C2.71244 36.7856 4.93921 48.5995 8.44533 59.8034C10.4604 66.2433 12.6091 71.5911 14.8318 75.6997C17.984 81.5257 21.3569 84.9566 25.1434 86.1887C27.2656 86.8783 31.1216 87.3613 35.1773 84.0666C35.6913 84.6739 36.3772 85.2773 37.2874 85.8378C38.4434 86.5488 39.8569 87.1299 41.2686 87.4742C46.3559 88.7147 51.1212 88.4045 55.1867 86.6656C55.2119 87.371 55.2311 88.0448 55.2473 88.6267C55.2742 89.5705 55.3011 90.496 55.3366 91.3615C55.5774 97.2133 55.9857 101.763 57.195 104.947C57.2614 105.122 57.3507 105.389 57.4449 105.672C58.0482 107.474 59.0571 110.49 61.6239 112.853C64.2817 115.3 67.4967 116.05 70.4412 116.05C71.918 116.05 73.327 115.861 74.5628 115.603C78.9679 114.682 83.9709 113.279 87.5901 108.253C91.0119 103.501 92.6752 96.3439 92.9762 85.0668C93.0152 84.7478 93.0511 84.4433 93.0857 84.1532L93.1574 83.5573L93.9636 83.6264L94.1712 83.64C98.658 83.8395 104.144 82.9114 107.513 81.3848C110.176 80.1798 118.707 75.7863 116.699 69.8549Z" fill="black"/>
<path d="M109.026 71.0084C95.6851 73.6928 94.7678 69.2871 94.7678 69.2871C108.853 48.9002 114.742 23.0221 109.661 16.6885C95.7977 -0.588227 71.8008 7.58262 71.4002 7.7944L71.2715 7.81715C68.6356 7.28334 65.6862 6.96567 62.3707 6.91273C56.3346 6.81647 51.7554 8.45641 48.2807 11.0266C48.2807 11.0266 5.47248 -6.17533 7.46374 32.6609C7.8872 40.9228 19.6042 95.1753 33.5793 78.7885C38.6873 72.7963 43.6231 67.7298 43.6231 67.7298C46.0741 69.3182 49.0088 70.1285 52.0851 69.8375L52.3242 69.6398C52.2498 70.3836 52.2839 71.1112 52.4198 71.9728C48.8195 75.8963 49.8777 76.585 42.6806 78.0303C35.3979 79.4943 39.676 82.1004 42.4693 82.7821C45.8557 83.6077 53.6897 84.7777 58.983 77.5498L58.7722 78.3746C60.1825 79.4768 61.173 85.543 61.007 91.0426C60.841 96.5418 60.7302 100.317 61.8414 103.267C62.9534 106.216 64.0609 112.851 73.5224 110.874C81.4278 109.221 85.5247 104.939 86.0949 97.7954C86.499 92.7171 87.4146 93.468 87.472 88.9275L88.2063 86.7782C89.0528 79.8942 88.3409 77.6732 93.2112 78.7063L94.3954 78.8078C97.9796 78.9666 102.672 78.2451 105.426 76.9968C111.355 74.3128 114.872 69.831 109.025 71.0084H109.026Z" fill="#336791"/>
<path d="M50.7871 36.3554C49.5849 36.1922 48.4962 36.3432 47.9454 36.7501C47.6358 36.9789 47.5398 37.2441 47.5138 37.4265C47.4447 37.91 47.7919 38.4447 48.0055 38.7204C48.6093 39.501 49.4912 40.0374 50.3641 40.1556C50.4906 40.1731 50.6167 40.1809 50.7418 40.1809C52.1975 40.1809 53.5212 39.0752 53.6379 38.2592C53.7837 37.2371 52.2625 36.5558 50.7871 36.3559" fill="white"/>
<path d="M90.6125 36.3881C90.4977 35.5869 89.0362 35.3585 87.6492 35.5467C86.264 35.7348 84.9209 36.3448 85.0331 37.1477C85.1228 37.7721 86.2788 38.8379 87.6469 38.8379C87.7627 38.8379 87.8793 38.8305 87.9968 38.8143C88.9102 38.6909 89.5803 38.1252 89.8988 37.7992C90.3833 37.3021 90.6641 36.7482 90.6125 36.3881Z" fill="white"/>
<path d="M113.466 70.7035C112.957 69.2031 111.32 68.7205 108.599 69.2683C100.523 70.8943 97.6303 69.768 96.6806 69.0859C102.959 59.7572 108.123 48.4807 110.909 37.9597C112.229 32.976 112.958 28.3476 113.018 24.575C113.083 20.4344 112.36 17.3917 110.869 15.533C104.857 8.0399 96.0338 4.02055 85.353 3.91029C78.0102 3.82978 71.8063 5.66268 70.6036 6.17812C68.0709 5.5638 65.3099 5.18663 62.304 5.1385C56.7918 5.05142 52.0269 6.3387 48.0821 8.9627C46.3685 8.3405 41.9401 6.85764 36.5244 6.0066C27.1616 4.53642 19.7214 5.65043 14.4119 9.31931C8.07661 13.6975 5.15185 21.5235 5.71841 32.5796C5.90906 36.2992 8.08199 47.7421 11.511 58.7006C16.0246 73.124 20.9312 81.2892 26.0935 82.9689C26.6977 83.1654 27.3944 83.3028 28.1628 83.3028C30.0459 83.3028 32.3548 82.4749 34.757 79.658C37.6869 76.2296 40.7177 72.8844 43.8457 69.6267C45.8751 70.689 48.1045 71.2824 50.3847 71.3419C50.3892 71.4001 50.395 71.4583 50.4004 71.516C50.0079 71.9725 49.6235 72.4357 49.2475 72.9053C47.6676 74.8615 47.3388 75.2689 42.2532 76.2901C40.8065 76.5816 36.9644 77.3538 36.9079 79.9809C36.8469 82.8512 41.4498 84.0567 41.9742 84.1845C43.8017 84.6308 45.5624 84.8509 47.2414 84.8509C51.3249 84.8509 54.9185 83.5417 57.7903 81.0087C57.7019 91.2413 58.1393 101.324 59.3989 104.396C60.4307 106.911 62.9508 113.058 70.9114 113.057C72.0795 113.057 73.3651 112.925 74.7795 112.629C83.0877 110.892 86.6956 107.31 88.0912 99.4135C88.8381 95.1933 90.1197 85.116 90.7225 79.7105C91.9947 80.0977 93.6325 80.2749 95.4031 80.2745C99.0958 80.2745 103.357 79.5092 106.029 78.2994C109.031 76.9395 114.448 73.6027 113.466 70.7035ZM93.6805 34.1766C93.6531 35.7724 93.4279 37.2211 93.1893 38.7333C92.9323 40.3597 92.6667 42.0412 92.5999 44.0824C92.5339 46.0689 92.7883 48.1341 93.0341 50.1315C93.5311 54.1658 94.0412 58.319 92.0669 62.4171C91.739 61.8503 91.4469 61.2645 91.1922 60.663C90.9468 60.0828 90.4139 59.1508 89.676 57.8609C86.8055 52.8395 80.0835 41.0808 83.5246 36.2826C84.5496 34.8544 87.1509 33.386 93.6805 34.1766ZM85.7657 7.14161C95.3358 7.3477 102.906 10.8398 108.266 17.5203C112.377 22.6445 107.85 45.9604 94.7454 66.0751C94.6137 65.9116 94.4812 65.7487 94.348 65.5863L94.182 65.3842C97.5684 59.9292 96.9063 54.532 96.3168 49.7469C96.0746 47.7832 95.8458 45.9284 95.9041 44.1861C95.9642 42.3396 96.2145 40.7557 96.4568 39.2242C96.7542 37.3371 97.057 35.3843 96.9735 33.0823C97.0359 32.8408 97.061 32.5555 97.0283 32.2168C96.8152 30.0094 94.2314 23.4028 88.965 17.4232C86.0842 14.1525 81.8832 10.4924 76.1472 8.02371C78.6144 7.5249 81.9882 7.05979 85.7657 7.14161ZM32.2148 77.5962C29.5682 80.7002 27.7407 80.1052 27.1396 79.91C23.2234 78.6359 18.6793 70.5622 14.673 57.7594C11.2064 46.6814 9.18057 35.5418 9.01998 32.4181C8.51398 22.5391 10.9691 15.6542 16.3175 11.9542C25.0218 5.93353 39.3325 9.53721 45.0829 11.3649C45.0003 11.4445 44.9142 11.5189 44.8326 11.5998C35.3962 20.8952 35.62 36.7766 35.6433 37.7475C35.6425 38.122 35.6747 38.6524 35.7187 39.3818C35.8811 42.053 36.1834 47.0245 35.376 52.6545C34.626 57.8863 36.2794 63.0069 39.9116 66.7038C40.2844 67.0825 40.6762 67.4429 41.0856 67.7837C39.4689 69.4726 35.9551 73.2076 32.2148 77.5962ZM42.2985 64.4727C39.3711 61.493 38.0415 57.3485 38.6502 53.1008C39.5025 47.1536 39.188 41.9738 39.0189 39.191C38.9952 38.8016 38.9741 38.4603 38.962 38.1912C40.3405 36.9988 46.7287 33.6603 51.2845 34.6785C53.3633 35.1428 54.6301 36.5237 55.1567 38.8987C57.8823 51.1952 55.5173 56.3203 53.6172 60.4389C53.2255 61.2874 52.8555 62.0894 52.5397 62.919L52.2947 63.5604C51.6748 65.182 51.0979 66.6898 50.7404 68.1215C47.6281 68.1127 44.6006 66.8158 42.2985 64.4723V64.4727ZM42.7763 81.056C41.8674 80.8346 41.0501 80.45 40.5706 80.131C40.9712 79.9472 41.684 79.6969 42.9203 79.4484C48.903 78.2473 49.8271 77.3993 51.8448 74.9005C52.3073 74.3273 52.8317 73.678 53.5579 72.8869L53.5588 72.886C54.6404 71.7046 55.1352 71.905 56.0323 72.2682C56.7595 72.5613 57.4678 73.4504 57.7549 74.4288C57.8908 74.8909 58.0433 75.7677 57.544 76.4503C53.3292 82.2067 47.1872 82.1328 42.7763 81.056ZM74.0869 109.476C66.7678 111.006 64.1763 107.363 62.4686 103.199C61.3664 100.51 60.8245 88.3876 61.209 74.9998C61.2139 74.8217 61.1879 74.6498 61.1376 74.4879C61.0927 74.1682 61.0243 73.852 60.9331 73.5419C60.3616 71.5939 58.9687 69.9645 57.2978 69.2889C56.6339 69.0207 55.4155 68.5284 53.9513 68.8938C54.2636 67.6389 54.805 66.2216 55.3922 64.6871L55.6385 64.0418C55.9157 63.3141 56.2638 62.5602 56.6316 61.7621C58.6202 57.4531 61.3435 51.551 58.3878 38.2174C57.2807 33.2232 53.5835 30.7843 47.9789 31.3509C44.619 31.69 41.5449 33.0123 40.0116 33.7706C39.6819 33.9334 39.3805 34.0909 39.0988 34.244C39.5267 29.2122 41.1434 19.8083 47.1912 13.8585C50.9992 10.113 56.0704 8.26305 62.2492 8.36282C74.4238 8.55709 82.2309 14.6513 86.6369 19.73C90.4337 24.1059 92.4895 28.5143 93.31 30.8919C87.1397 30.2798 82.9432 31.4678 80.8161 34.4344C76.188 40.8874 83.3478 53.4119 86.7889 59.4313C87.4201 60.5343 87.9647 61.4878 88.136 61.8929C89.2566 64.5419 90.7073 66.3105 91.7664 67.6012C92.0912 67.9968 92.4061 68.3805 92.6456 68.7157C90.7768 69.2412 87.4201 70.4554 87.726 76.5247C87.4793 79.57 85.7249 93.8281 84.8336 98.8656C83.6569 105.521 81.1462 108 74.0869 109.476V109.476ZM104.637 75.3748C102.726 76.2398 99.5282 76.8887 96.4904 77.0283C93.135 77.1814 91.4268 76.6616 91.0249 76.3418C90.8365 72.5596 92.2796 72.1645 93.807 71.7462C94.047 71.6805 94.2812 71.6162 94.5072 71.5392C94.6476 71.6508 94.8015 71.7615 94.9702 71.87C97.6671 73.6062 102.477 73.7935 109.268 72.4261L109.343 72.4117C108.427 73.247 106.859 74.368 104.637 75.3748Z" fill="white"/>
</svg>
