<svg width="137" height="137" viewBox="0 0 137 137" fill="none" xmlns="http://www.w3.org/2000/svg">
<path d="M31.5674 100.278V81.3617C31.6601 76.2617 35.3507 65.9505 49.371 65.5054C63.3912 65.0603 80.0635 65.32 86.6471 65.5054C90.2312 65.7614 96.8967 62.427 100.415 54.3782V14.0421C98.2368 9.96207 90.6529 1.69084 77.7454 1.24576C64.8378 0.800668 54.9346 1.0603 51.5964 1.24576C46.6819 2.82211 36.6859 7.58827 36.0183 14.0421C35.3507 20.4958 35.7401 28.2293 36.0183 31.2892H68.2872V35.1838H21.2747C14.7839 35.9256 1.69084 41.8045 1.24576 59.3854C0.800668 76.9664 1.0603 79.3217 1.24576 78.3017C1.89484 84.6999 6.03045 98.0525 17.3802 100.278H31.5674Z" fill="#3970A2" stroke="black" stroke-width="0.834541"/>
<path d="M105.979 37.2965V56.2128C105.886 61.3127 102.196 71.624 88.1754 72.0691C74.1551 72.5141 57.4829 72.2545 50.8993 72.0691C47.3152 71.813 40.6497 75.1475 37.131 83.1963V123.532C39.3095 127.612 46.8935 135.884 59.801 136.329C72.7086 136.774 82.6118 136.514 85.95 136.329C90.8645 134.752 100.86 129.986 101.528 123.532C102.196 117.079 101.806 109.345 101.528 106.285H69.2592V102.391H116.272C122.763 101.649 135.856 95.77 136.301 78.189C136.746 60.608 136.486 58.2528 136.301 59.2728C135.652 52.8746 131.516 39.5219 120.166 37.2965H105.979Z" fill="#FED141" stroke="black" stroke-width="0.834541"/>
<circle cx="50.2054" cy="17.102" r="6.39815" fill="white" stroke="black" stroke-width="1.66908"/>
<circle cx="86.3689" cy="118.36" r="6.39815" fill="white" stroke="black" stroke-width="1.66908"/>
</svg>
