<svg width="119" height="117" viewBox="0 0 119 117" fill="none" xmlns="http://www.w3.org/2000/svg">
<path d="M0.665771 58.3447C0.665771 67.4418 9.37567 75.9343 23.1075 80.7212C20.3654 94.8007 22.6161 106.149 30.1336 110.57C37.8609 115.115 49.3726 111.969 60.2988 102.229C70.9493 111.576 81.7136 115.255 89.2241 110.82C96.9438 106.262 99.292 94.1448 96.474 79.6259C110.776 74.8031 118.777 67.5616 118.777 58.3447C118.777 49.4585 110.051 41.7707 96.5042 37.0144C99.5378 21.8954 96.9673 10.8228 89.1386 6.21841C81.5909 1.77944 70.7017 5.64845 59.8945 15.2408C48.6515 5.05928 37.8698 1.95073 30.0486 6.56859C22.5082 11.0202 20.3565 22.5744 23.1075 36.9145C9.83934 41.6326 0.665771 49.494 0.665771 58.3447Z" fill="white"/>
<path d="M93.6337 41.7375C92.5456 41.3555 91.418 40.9941 90.2571 40.6523C90.4479 39.858 90.623 39.074 90.7787 38.3034C93.3348 25.6492 91.6635 15.4549 85.9568 12.0985C80.4847 8.88012 71.5356 12.2358 62.4974 20.2579C61.6283 21.0293 60.7567 21.846 59.8856 22.702C59.3051 22.1357 58.7255 21.5884 58.1475 21.0649C48.6752 12.4871 39.1807 8.87231 33.4795 12.2384C28.0127 15.4661 26.3938 25.0497 28.6946 37.0422C28.9168 38.2006 29.1765 39.3835 29.4702 40.5862C28.1264 40.9752 26.8292 41.39 25.5879 41.8312C14.4827 45.78 7.39038 51.9687 7.39038 58.3881C7.39038 65.0181 15.004 71.668 26.571 75.7003C27.4838 76.0185 28.4309 76.3193 29.4071 76.605C29.0902 77.9057 28.8146 79.1804 28.5833 80.4237C26.3895 92.2081 28.1027 101.565 33.555 104.773C39.1867 108.085 48.6382 104.68 57.8417 96.4753C58.5691 95.8267 59.2991 95.1389 60.0304 94.4179C60.9784 95.3489 61.9248 96.23 62.8662 97.0564C71.7808 104.88 80.5854 108.04 86.0326 104.823C91.6587 101.502 93.4871 91.4498 91.1133 79.22C90.932 78.286 90.721 77.3318 90.4841 76.3606C91.1479 76.1605 91.7995 75.9539 92.4348 75.7391C104.46 71.6757 112.284 65.1066 112.284 58.3881C112.284 51.9455 104.963 45.715 93.6337 41.7375Z" fill="#53C1DE"/>
<path d="M91.0234 71.4014C90.4498 71.5951 89.8613 71.7823 89.2616 71.9637C87.9341 67.6775 86.1424 63.1197 83.9499 58.4107C86.0422 53.8139 87.7646 49.3144 89.0549 45.056C90.1279 45.3726 91.1694 45.7066 92.1729 46.0591C101.88 49.4671 107.8 54.5059 107.8 58.3885C107.8 62.5241 101.406 67.8927 91.0234 71.4014ZM86.7153 80.108C87.7649 85.5158 87.9149 90.4051 87.2196 94.2273C86.5948 97.6618 85.3385 99.9516 83.785 100.869C80.4794 102.82 73.4102 100.284 65.7863 93.5924C64.9124 92.8254 64.032 92.0064 63.1489 91.1396C66.1045 87.8428 69.0584 84.0101 71.9414 79.7536C77.0122 79.2947 81.803 78.5444 86.1475 77.5201C86.3614 78.4004 86.5515 79.2638 86.7153 80.108ZM43.1487 100.531C39.919 101.695 37.3467 101.728 35.7918 100.814C32.4831 98.8673 31.1077 91.3544 32.9839 81.2764C33.1988 80.1222 33.4546 78.9367 33.7494 77.7248C38.0463 78.6939 42.802 79.3912 47.8849 79.8115C50.7873 83.9766 53.8265 87.8051 56.8893 91.1573C56.2201 91.8161 55.5536 92.4434 54.8908 93.0345C50.8211 96.6626 46.7428 99.2368 43.1487 100.531ZM28.018 71.3761C22.9033 69.5932 18.6794 67.2759 15.7841 64.7473C13.1825 62.4749 11.869 60.219 11.869 58.3885C11.869 54.493 17.5634 49.5242 27.0607 46.1471C28.2131 45.7373 29.4194 45.3511 30.6713 44.9884C31.9839 49.343 33.7057 53.8958 35.7836 58.4997C33.6788 63.1719 31.9325 67.7973 30.6071 72.2029C29.7146 71.9413 28.85 71.6659 28.018 71.3761ZM33.0899 36.1649C31.1187 25.89 32.4279 18.139 35.7223 16.1941C39.2315 14.1221 46.9913 17.0763 55.1699 24.4828C55.6927 24.9562 56.2175 25.4517 56.7439 25.9643C53.6962 29.3018 50.6848 33.1016 47.8082 37.2421C42.875 37.7085 38.1527 38.4576 33.811 39.4607C33.538 38.3409 33.2963 37.2406 33.0899 36.1649ZM78.3362 47.5596C77.2982 45.7312 76.2327 43.946 75.1464 42.2095C78.4932 42.641 81.6997 43.2138 84.7109 43.9148C83.8069 46.8697 82.6801 49.9594 81.3537 53.1267C80.4023 51.2843 79.3959 49.4267 78.3362 47.5596ZM59.8849 29.2304C61.9517 31.5142 64.0216 34.064 66.0574 36.8304C64.0059 36.7316 61.9289 36.6802 59.8348 36.6802C57.7605 36.6802 55.6989 36.7305 53.66 36.8276C55.6979 34.0868 57.7857 31.5405 59.8849 29.2304ZM41.3154 47.5913C40.2786 49.4248 39.2909 51.2723 38.3544 53.1232C37.0495 49.967 35.9331 46.8633 35.0213 43.8664C38.014 43.1833 41.2054 42.6248 44.5309 42.2015C43.4293 43.954 42.355 45.7523 41.3154 47.5909V47.5913ZM44.6267 74.9014C41.1909 74.5105 37.9515 73.9807 34.9595 73.3165C35.8859 70.2661 37.0269 67.0961 38.3594 63.8719C39.2984 65.7215 40.29 67.5697 41.3331 69.4073H41.3333C42.3959 71.2794 43.4967 73.1131 44.6267 74.9014ZM60.0088 87.8687C57.885 85.5316 55.7666 82.9464 53.6977 80.1657C55.7061 80.246 57.7538 80.2871 59.8348 80.2871C61.9728 80.2871 64.0864 80.238 66.1667 80.1436C64.1241 82.9744 62.0617 85.5636 60.0088 87.8687ZM81.3965 63.7076C82.7985 66.9666 83.9803 70.1201 84.9187 73.1185C81.8774 73.8261 78.5938 74.396 75.1341 74.8195C76.223 73.0596 77.2979 71.2438 78.3541 69.3759C79.4226 67.4861 80.4372 65.5935 81.3965 63.7076ZM74.4726 67.0927C72.8329 69.9923 71.1496 72.7603 69.4406 75.3731C66.328 75.6001 63.1123 75.717 59.8348 75.717C56.5706 75.717 53.3954 75.6136 50.3379 75.4112C48.5601 72.7641 46.8401 69.9879 45.2109 67.1177H45.2112C43.5863 64.2552 42.0908 61.3686 40.7357 58.4981C42.0904 55.621 43.582 52.7312 45.1976 49.8739L45.1972 49.8744C46.8171 47.0095 48.522 44.2468 50.2834 41.6163C53.4029 41.3758 56.6018 41.2503 59.8346 41.2503H59.8348C63.0822 41.2503 66.2852 41.3768 69.4038 41.6194C71.1383 44.2307 72.8316 46.9844 74.4578 49.8497C76.1026 52.7472 77.6134 55.6178 78.9797 58.4332C77.6175 61.297 76.11 64.1966 74.4726 67.0927ZM83.7163 16.0581C87.2289 18.124 88.5949 26.4558 86.388 37.3813C86.2472 38.0785 86.0887 38.7885 85.9165 39.5082C81.5647 38.4841 76.8391 37.722 71.8915 37.2486C69.0093 33.0625 66.0225 29.2569 63.0246 25.9622C63.8306 25.1714 64.6355 24.4173 65.437 23.7057C73.1809 16.8324 80.4187 14.1186 83.7163 16.0581Z" fill="white"/>
<path d="M59.8363 48.8354C65.0093 48.8354 69.2029 53.1124 69.2029 58.3884C69.2029 63.6643 65.0093 67.9414 59.8363 67.9414C54.6634 67.9414 50.4697 63.6643 50.4697 58.3884C50.4697 53.1124 54.6634 48.8354 59.8363 48.8354Z" fill="#53C1DE"/>
</svg>
