<svg width="119" height="116" viewBox="0 0 119 116" fill="none" xmlns="http://www.w3.org/2000/svg">
<g clip-path="url(#clip0_1904_343)">
<path d="M82.2864 79.8521C86.645 79.412 89.9517 75.747 89.8012 71.3484C89.6513 66.9503 85.8934 63.4316 81.3844 63.4316H81.0841C76.4242 63.5783 72.8172 67.39 72.9676 71.9348C73.118 74.1341 74.0196 76.04 75.3723 77.3594C70.2622 87.1826 62.4465 94.3664 50.7231 100.377C42.757 104.483 34.4906 105.949 26.2242 104.923C19.4605 104.043 14.2 101.111 10.8929 96.2723C6.08352 89.0885 5.63276 81.3179 9.69099 73.5477C12.5469 67.9764 17.0554 63.8712 19.9113 61.8187C19.3101 59.9128 18.4081 56.6875 17.9574 54.3419C-3.83643 69.736 -1.5817 90.5547 5.0316 100.377C9.99134 107.708 20.0617 112.253 31.184 112.253C34.1898 112.253 37.1957 111.96 40.202 111.227C59.4407 107.562 74.02 96.419 82.2864 79.8521ZM108.74 61.6724C97.3165 48.6239 80.4829 41.4401 61.2442 41.4401H58.8395C57.4868 38.8012 54.6309 37.0416 51.4746 37.0416H51.1738C46.5149 37.1883 42.9079 41 43.0578 45.5453C43.2082 49.9434 46.9657 53.4621 51.4746 53.4621H51.775C55.0816 53.3154 57.9375 51.2628 59.1399 48.4772H61.8454C73.2685 48.4772 84.0899 51.7025 93.8599 58.0069C101.375 62.8452 106.786 69.1496 109.792 76.7731C112.347 82.9308 112.196 88.9418 109.491 94.0734C105.283 101.844 98.2185 106.095 88.8997 106.095C82.8876 106.095 77.1763 104.336 74.17 103.016C72.5169 104.483 69.5106 106.828 67.4063 108.295C73.8696 111.227 80.4829 112.84 86.7954 112.84C101.224 112.84 111.896 105.069 115.954 97.2988C120.313 88.7951 120.012 74.1341 108.74 61.6724ZM32.3863 82.3439C32.5367 86.7425 36.2941 90.2608 40.8031 90.2608H41.1039C45.7633 90.1145 49.3703 86.3024 49.2199 81.7575C49.07 77.359 45.3121 73.8407 40.8031 73.8407H40.5028C40.202 73.8407 39.7507 73.8407 39.4508 73.9869C33.2883 64.0175 30.7332 53.1687 31.6352 41.4397C32.2359 32.643 35.2422 25.0191 40.5028 18.7147C44.8613 13.2901 53.2781 10.6511 58.9899 10.5048C74.9215 10.2114 81.6848 29.5639 82.136 37.3345C84.0899 37.7742 87.3966 38.8007 89.6513 39.5338C87.8473 15.7832 72.8172 3.46777 58.3888 3.46777C44.8613 3.46777 32.3863 12.9975 27.4261 27.0721C20.5125 45.8382 25.0214 63.8712 33.4382 78.0925C32.6871 79.1186 32.2359 80.7315 32.3863 82.3444V82.3439Z" fill="#764ABC"/>
</g>
<defs>
<clipPath id="clip0_1904_343">
<rect width="118.111" height="115.207" fill="white" transform="translate(0.447754 0.550293)"/>
</clipPath>
</defs>
</svg>
