<svg width="113" height="113" viewBox="0 0 113 113" fill="none" xmlns="http://www.w3.org/2000/svg">
<g clip-path="url(#clip0_1911_151)">
<rect width="113" height="113" rx="56.5" fill="#F7354D"/>
<path d="M91.8498 32.0387L56.4523 71.7365L21.1502 32.1457L35.8921 13.9832L56.6157 13.9833L56.6202 13.9832L77.1097 13.8784L91.8498 32.0387Z" fill="white" stroke="#F7354D" stroke-width="1.7525"/>
<path d="M37.2454 75.122H42.9212C44.8944 75.122 46.3337 75.5863 47.239 76.5148C48.1443 77.4202 48.597 78.8246 48.597 80.7281V82.2254C48.597 84.7558 47.7613 86.3575 46.0899 87.0307V87.1004C47.0185 87.3789 47.6685 87.9477 48.0399 88.8066C48.4345 89.6655 48.6318 90.8146 48.6318 92.2538V96.5368C48.6318 97.2332 48.655 97.802 48.7015 98.243C48.7479 98.6609 48.864 99.0787 49.0497 99.4966H45.1497C45.0105 99.1019 44.9176 98.7305 44.8712 98.3823C44.8248 98.0341 44.8015 97.4073 44.8015 96.502V92.0449C44.8015 90.9307 44.6158 90.153 44.2444 89.7119C43.8962 89.2709 43.281 89.0503 42.3989 89.0503H41.0757V99.4966H37.2454V75.122ZM42.4685 85.5682C43.2346 85.5682 43.8033 85.3709 44.1748 84.9763C44.5694 84.5816 44.7667 83.9201 44.7667 82.9915V81.1112C44.7667 80.229 44.6042 79.5907 44.2792 79.196C43.9774 78.8014 43.49 78.6041 42.8168 78.6041H41.0757V85.5682H42.4685ZM56.8607 99.8448C55.0036 99.8448 53.5876 99.3225 52.6126 98.2779C51.6376 97.21 51.1501 95.6895 51.1501 93.7163V75.122H54.9804V93.9949C54.9804 94.8306 55.1429 95.4341 55.4679 95.8056C55.8161 96.177 56.3036 96.3627 56.9304 96.3627C57.5571 96.3627 58.033 96.177 58.358 95.8056C58.7062 95.4341 58.8803 94.8306 58.8803 93.9949V75.122H62.5713V93.7163C62.5713 95.6895 62.0838 97.21 61.1089 98.2779C60.1339 99.3225 58.7178 99.8448 56.8607 99.8448ZM65.2993 75.122H71.0796C73.0528 75.122 74.492 75.5863 75.3974 76.5148C76.3027 77.4202 76.7554 78.8246 76.7554 80.7281V81.7031C76.7554 82.9567 76.5465 83.9781 76.1286 84.7674C75.734 85.5566 75.1188 86.1254 74.2831 86.4736V86.5432C76.1866 87.1932 77.1384 88.8878 77.1384 91.6271V93.7163C77.1384 95.5966 76.6393 97.0359 75.6411 98.0341C74.6661 99.0091 73.2269 99.4966 71.3233 99.4966H65.2993V75.122ZM70.6269 85.0459C71.393 85.0459 71.9617 84.8486 72.3331 84.454C72.7278 84.0593 72.9251 83.3977 72.9251 82.4692V81.1112C72.9251 80.229 72.7626 79.5907 72.4376 79.196C72.1358 78.8014 71.6483 78.6041 70.9751 78.6041H69.1296V85.0459H70.6269ZM71.3233 96.0145C71.9965 96.0145 72.4956 95.8404 72.8206 95.4922C73.1456 95.1208 73.3081 94.494 73.3081 93.6119V91.4878C73.3081 90.3735 73.1108 89.6075 72.7162 89.1896C72.3447 88.7485 71.718 88.528 70.8358 88.528H69.1296V96.0145H71.3233ZM54.7043 131.12L50.0731 117.122H54.1471L56.7587 126.071H56.8283L59.4399 117.122H63.1657L58.5346 131.12V141.497H54.7043V131.12Z" fill="white"/>
</g>
<defs>
<clipPath id="clip0_1911_151">
<rect width="113" height="113" rx="56.5" fill="white"/>
</clipPath>
</defs>
</svg>
