<svg width="119" height="117" viewBox="0 0 119 117" fill="none" xmlns="http://www.w3.org/2000/svg">
<path d="M0.223938 58.4466V116.05H59.2795H118.335V58.4466V0.843239H59.2795H0.223938V58.4466Z" fill="#007ACC"/>
<path d="M26.3433 58.8288L26.3058 63.5468H33.9924L41.679 63.5468L41.679 84.8509V106.155H47.1158H52.5527V84.8509L52.5527 63.5468H60.2393H67.9259V58.9202C67.9259 56.3601 67.8697 54.2205 67.7947 54.1657C67.7384 54.0925 58.3833 54.0559 47.0409 54.0742L26.3995 54.1291L26.3433 58.8288Z" fill="white"/>
<path d="M95.5268 53.9956C98.5264 54.7271 100.814 56.0254 102.913 58.1467C104.001 59.2805 105.613 61.3469 105.744 61.8406C105.782 61.9869 100.645 65.3517 97.5328 67.2352C97.4203 67.3084 96.9703 66.8329 96.4642 66.1014C94.9456 63.9436 93.352 63.011 90.9148 62.8464C87.334 62.6087 85.028 64.4373 85.0467 67.4912C85.0467 68.3873 85.178 68.9176 85.5529 69.6491C86.3403 71.24 87.8027 72.1909 92.3959 74.1293C100.851 77.677 104.469 80.0177 106.719 83.3459C109.231 87.0581 109.794 92.983 108.088 97.3902C106.213 102.181 101.564 105.436 95.0206 106.515C92.9958 106.863 88.1964 106.808 86.0216 106.424C81.2784 105.601 76.779 103.315 74.0043 100.316C72.9169 99.1457 70.7984 96.0918 70.9297 95.8723C70.9859 95.7992 71.4733 95.5066 72.017 95.1957C72.542 94.9031 74.5292 93.7877 76.404 92.727L79.7974 90.8069L80.5098 91.831C81.5034 93.3122 83.6782 95.342 84.9905 96.0186C88.7588 97.957 93.9332 97.6827 96.4829 95.4517C97.5703 94.4825 98.0202 93.4768 98.0202 91.9955C98.0202 90.6606 97.8515 90.0754 97.1391 89.0697C96.2204 87.7896 94.3457 86.7107 89.0213 84.4614C82.9282 81.9012 80.3036 80.3103 77.9038 77.7867C76.5165 76.3238 75.2042 73.9831 74.6605 72.0264C74.2105 70.3988 74.098 66.3209 74.4542 64.6751C75.7103 58.933 80.1536 54.9282 86.5653 53.7396C88.6463 53.3555 93.4833 53.5018 95.5268 53.9956Z" fill="white"/>
</svg>
